<svg width="32" height="32" viewBox="0 0 32 32" fill="none" xmlns="http://www.w3.org/2000/svg">
<g opacity="0.49">
<path d="M10.6667 13.3333L16 18.6667L21.3334 13.3333M5.33335 4H26.6667C27.3739 4 28.0522 4.28095 28.5523 4.78105C29.0524 5.28115 29.3334 5.95942 29.3334 6.66667V14.6667C29.3334 18.2029 27.9286 21.5943 25.4281 24.0948C22.9276 26.5952 19.5362 28 16 28C14.2491 28 12.5152 27.6551 10.8976 26.9851C9.2799 26.315 7.81004 25.3329 6.57193 24.0948C4.07144 21.5943 2.66669 18.2029 2.66669 14.6667V6.66667C2.66669 5.95942 2.94764 5.28115 3.44774 4.78105C3.94783 4.28095 4.62611 4 5.33335 4Z" stroke="#090A0A" stroke-width="1.5" stroke-linecap="round" stroke-linejoin="round"/>
</g>
</svg>
