<svg width="321" height="411" viewBox="0 0 321 411" fill="none" xmlns="http://www.w3.org/2000/svg">
<path d="M70 0H0V70H70V0Z" fill="#E60012"/>
<path d="M120 10.0488H70V60.0488H120V10.0488Z" fill="white" stroke="#231815" stroke-miterlimit="10"/>
<path d="M170 10.0488H120V60.0488H170V10.0488Z" fill="white" stroke="#231815" stroke-miterlimit="10"/>
<path d="M220 10.0488H170V60.0488H220V10.0488Z" fill="white" stroke="#231815" stroke-miterlimit="10"/>
<path d="M120 110.049H70V160.049H120V110.049Z" fill="white" stroke="#231815" stroke-miterlimit="10"/>
<path d="M170 110.049H120V160.049H170V110.049Z" fill="white" stroke="#231815" stroke-miterlimit="10"/>
<path d="M220 110.049H170V160.049H220V110.049Z" fill="white" stroke="#231815" stroke-miterlimit="10"/>
<path d="M270 10.0488H220V60.0488H270V10.0488Z" fill="white" stroke="#231815" stroke-miterlimit="10"/>
<path d="M120 360.049H70V410.049H120V360.049Z" fill="white" stroke="#231815" stroke-miterlimit="10"/>
<path d="M170 360.049H120V410.049H170V360.049Z" fill="white" stroke="#231815" stroke-miterlimit="10"/>
<path d="M70 310.049H20V360.049H70V310.049Z" fill="white" stroke="#231815" stroke-miterlimit="10"/>
<path d="M70 360.049H20V410.049H70V360.049Z" fill="white" stroke="#231815" stroke-miterlimit="10"/>
<path d="M220 360.049H170V410.049H220V360.049Z" fill="white" stroke="#231815" stroke-miterlimit="10"/>
<path d="M270 360H220V410H270V360Z" fill="white" stroke="#231815" stroke-miterlimit="10"/>
<path d="M320 10.0488H270V60.0488H320V10.0488Z" fill="white" stroke="#231815" stroke-miterlimit="10"/>
<path d="M320 60.0488H270V110.049H320V60.0488Z" fill="white" stroke="#231815" stroke-miterlimit="10"/>
<path d="M320 110.049H270V160.049H320V110.049Z" fill="white" stroke="#231815" stroke-miterlimit="10"/>
<path d="M320 160.049H270V210.049H320V160.049Z" fill="white" stroke="#231815" stroke-miterlimit="10"/>
<path d="M320 210.049H270V260.049H320V210.049Z" fill="white" stroke="#231815" stroke-miterlimit="10"/>
<path d="M320 260.049H270V310.049H320V260.049Z" fill="white" stroke="#231815" stroke-miterlimit="10"/>
<path d="M220 160.049H170V210.049H220V160.049Z" fill="white" stroke="#231815" stroke-miterlimit="10"/>
<path d="M220 210.049H170V260.049H220V210.049Z" fill="white" stroke="#231815" stroke-miterlimit="10"/>
<path d="M220 260.049H170V310.049H220V260.049Z" fill="white" stroke="#231815" stroke-miterlimit="10"/>
<path d="M70 110.049H20V160.049H70V110.049Z" fill="white" stroke="#231815" stroke-miterlimit="10"/>
<path d="M70 160.049H20V210.049H70V160.049Z" fill="white" stroke="#231815" stroke-miterlimit="10"/>
<path d="M70 210.049H20V260.049H70V210.049Z" fill="white" stroke="#231815" stroke-miterlimit="10"/>
<path d="M70 260.049H20V310.049H70V260.049Z" fill="white" stroke="#231815" stroke-miterlimit="10"/>
<path d="M320 310.049H270V360.049H320V310.049Z" fill="white" stroke="#231815" stroke-miterlimit="10"/>
<path d="M320 360.049H270V410.049H320V360.049Z" fill="white" stroke="#231815" stroke-miterlimit="10"/>
<path d="M170 250H100V320H170V250Z" fill="#E60012"/>
<path d="M16.328 29.168C16.2 29.344 15.912 29.824 15.768 30.16C15.112 31.68 13.928 33.856 12.552 35.456C10.76 37.52 8.344 39.504 5.864 40.672L4.2 38.944C6.792 37.984 9.256 36.032 10.76 34.368C11.816 33.168 12.792 31.584 13.16 30.448C12.488 30.448 8.408 30.448 7.72 30.448C7.064 30.448 6.184 30.528 5.832 30.56V28.272C6.264 28.336 7.256 28.384 7.72 28.384C8.568 28.384 12.664 28.384 13.368 28.384C14.072 28.384 14.696 28.304 15.032 28.192L16.328 29.168ZM12.76 34.128C14.408 35.472 16.68 37.856 17.72 39.136L15.896 40.72C14.712 39.072 12.968 37.168 11.256 35.616L12.76 34.128ZM25.848 32.512C27.816 33.648 30.776 35.696 32.264 36.88L30.728 38.704C29.336 37.392 26.296 35.152 24.424 33.968L25.848 32.512ZM33.384 29.792C33.192 30.096 32.984 30.544 32.84 30.944C32.36 32.416 31.384 34.464 29.944 36.24C28.44 38.112 26.392 39.904 23.336 41.056L21.48 39.456C24.824 38.416 26.728 36.736 28.104 35.136C29.176 33.872 30.168 32.032 30.472 30.784H25.064L25.8 28.976H30.36C30.856 28.976 31.384 28.896 31.752 28.784L33.384 29.792ZM28.088 27.328C27.704 27.888 27.288 28.624 27.096 28.96C26.024 30.896 23.976 33.344 21.672 34.928L19.96 33.6C22.76 31.872 24.232 29.68 25.048 28.288C25.288 27.904 25.624 27.168 25.768 26.608L28.088 27.328ZM36.456 32.592C37.048 32.64 38.2 32.704 39.032 32.704C40.92 32.704 46.2 32.704 47.624 32.704C48.376 32.704 49.08 32.624 49.512 32.592V35.12C49.128 35.104 48.312 35.024 47.64 35.024C46.184 35.024 40.92 35.024 39.032 35.024C38.136 35.024 37.064 35.072 36.456 35.12V32.592ZM56.008 38.48C56.008 37.248 56.008 30.624 56.008 29.28C56.008 28.704 55.96 27.92 55.848 27.344H58.344C58.28 27.92 58.2 28.608 58.2 29.28C58.2 31.04 58.216 37.296 58.216 38.48C58.216 38.928 58.28 40.048 58.36 40.704H55.848C55.96 40.08 56.008 39.104 56.008 38.48ZM57.736 31.488C59.864 32.08 63.32 33.344 64.888 34.112L63.992 36.336C62.168 35.392 59.48 34.368 57.736 33.792V31.488Z" fill="white"/>
<path d="M122.936 276.591C123.352 277.183 123.912 278.159 124.2 278.751L122.856 279.311C122.552 278.623 122.04 277.743 121.624 277.135L122.936 276.591ZM125.112 276.079C125.512 276.671 126.088 277.631 126.392 278.207L125.048 278.767C124.712 278.111 124.216 277.215 123.768 276.623L125.112 276.079ZM113.112 279.103C113.72 279.167 114.552 279.215 115.096 279.215H123.16C123.624 279.215 124.296 279.183 124.568 279.167C124.552 279.551 124.52 280.175 124.52 280.655V288.943C124.52 289.487 124.552 290.335 124.584 290.831H122.264C122.28 290.351 122.296 289.775 122.296 289.183V281.279H115.112C114.424 281.279 113.576 281.311 113.112 281.343V279.103ZM112.92 287.791C113.464 287.839 114.2 287.887 114.92 287.887H123.56V289.999H114.984C114.36 289.999 113.448 290.031 112.92 290.095V287.791ZM128.456 282.543C129.048 282.591 130.2 282.655 131.032 282.655C132.92 282.655 138.2 282.655 139.624 282.655C140.376 282.655 141.08 282.575 141.512 282.543V285.071C141.128 285.055 140.312 284.975 139.64 284.975C138.184 284.975 132.92 284.975 131.032 284.975C130.136 284.975 129.064 285.023 128.456 285.071V282.543ZM151.032 289.599C151.112 289.295 151.16 288.863 151.16 288.431C151.16 287.583 151.16 280.399 151.16 279.103C151.16 278.383 151.048 277.759 151.048 277.727H153.416C153.416 277.759 153.304 278.399 153.304 279.119C153.304 280.399 153.304 286.495 153.304 287.471C154.616 286.911 156.184 285.647 157.272 284.095L158.488 285.871C157.16 287.599 154.872 289.327 153.064 290.239C152.728 290.415 152.536 290.591 152.376 290.703L151.032 289.599ZM143.624 289.375C145.048 288.383 145.912 286.911 146.344 285.535C146.808 284.175 146.824 281.135 146.824 279.215C146.824 278.559 146.76 278.143 146.664 277.743H149.016C149.016 277.807 148.904 278.527 148.904 279.183C148.904 281.087 148.856 284.463 148.44 286.079C147.944 287.871 146.952 289.455 145.576 290.671L143.624 289.375Z" fill="white"/>
</svg>
