<svg width="32" height="32" viewBox="0 0 32 32" fill="none" xmlns="http://www.w3.org/2000/svg">
<rect x="0.5" y="0.5" width="31" height="31" fill="white"/>
<path d="M5.33329 4H26.6666C27.3739 4 28.0521 4.28095 28.5522 4.78105C29.0523 5.28115 29.3333 5.95942 29.3333 6.66667V14.6667C29.3333 18.2029 27.9285 21.5943 25.4281 24.0948C22.9276 26.5952 19.5362 28 16 28C14.249 28 12.5152 27.6551 10.8975 26.9851C9.27984 26.315 7.80998 25.3329 6.57187 24.0948C4.07138 21.5943 2.66663 18.2029 2.66663 14.6667V6.66667C2.66663 5.95942 2.94758 5.28115 3.44767 4.78105C3.94777 4.28095 4.62605 4 5.33329 4Z" fill="white"/>
<path d="M10.6666 13.3333L16 18.6667L21.3333 13.3333" fill="white"/>
<path d="M10.6666 13.3333L16 18.6667L21.3333 13.3333M5.33329 4H26.6666C27.3739 4 28.0521 4.28095 28.5522 4.78105C29.0523 5.28115 29.3333 5.95942 29.3333 6.66667V14.6667C29.3333 18.2029 27.9285 21.5943 25.4281 24.0948C22.9276 26.5952 19.5362 28 16 28C14.249 28 12.5152 27.6551 10.8975 26.9851C9.27984 26.315 7.80998 25.3329 6.57187 24.0948C4.07138 21.5943 2.66663 18.2029 2.66663 14.6667V6.66667C2.66663 5.95942 2.94758 5.28115 3.44767 4.78105C3.94777 4.28095 4.62605 4 5.33329 4Z" stroke="#090A0A" stroke-width="1.5" stroke-linecap="round" stroke-linejoin="round"/>
<rect x="0.5" y="0.5" width="31" height="31" stroke="black"/>
</svg>
