<svg xmlns="http://www.w3.org/2000/svg" xmlns:xlink="http://www.w3.org/1999/xlink" width="100" zoomAndPan="magnify" viewBox="0 0 75 74.999997" height="100" preserveAspectRatio="xMidYMid meet" version="1.0"><defs><clipPath id="ad432651cc"><path d="M 15.089844 38 L 60 38 L 60 62.171875 L 15.089844 62.171875 Z M 15.089844 38 " clip-rule="nonzero"/></clipPath><clipPath id="243857885a"><path d="M 24 12.671875 L 51 12.671875 L 51 39 L 24 39 Z M 24 12.671875 " clip-rule="nonzero"/></clipPath></defs><rect x="-7.5" width="90" fill="#ffffff" y="-7.5" height="89.999996" fill-opacity="1"/><rect x="-7.5" width="90" fill="#ffffff" y="-7.5" height="89.999996" fill-opacity="1"/><rect x="-7.5" width="90" fill="#ffffff" y="-7.5" height="89.999996" fill-opacity="1"/><g clip-path="url(#ad432651cc)"><path fill="#000000" d="M 47.507812 38.9375 C 44.632812 41.035156 41.160156 42.167969 37.59375 42.175781 C 34.023438 42.167969 30.550781 41.035156 27.667969 38.9375 C 20.675781 39.722656 15.285156 45.273438 15.285156 52.054688 L 15.285156 57.207031 C 15.285156 60.808594 17.054688 62.144531 20.171875 62.117188 L 55.007812 62.117188 C 58.125 62.144531 59.898438 60.808594 59.898438 57.207031 L 59.898438 52.054688 C 59.898438 45.273438 54.507812 39.71875 47.507812 38.9375 Z M 47.507812 38.9375 " fill-opacity="1" fill-rule="nonzero"/></g><g clip-path="url(#243857885a)"><path fill="#000000" d="M 37.59375 12.648438 C 34.164062 12.648438 30.875 14 28.449219 16.410156 C 26.03125 18.816406 24.667969 22.078125 24.667969 25.480469 C 24.667969 28.882812 26.03125 32.148438 28.449219 34.550781 C 30.875 36.957031 34.164062 38.308594 37.59375 38.308594 C 41.019531 38.308594 44.304688 36.957031 46.730469 34.550781 C 49.15625 32.148438 50.515625 28.882812 50.515625 25.480469 C 50.515625 22.078125 49.152344 18.816406 46.730469 16.410156 C 44.304688 14 41.019531 12.648438 37.59375 12.648438 Z M 37.59375 12.648438 " fill-opacity="1" fill-rule="nonzero"/></g></svg>